<svg xmlns="http://www.w3.org/2000/svg" viewBox="0 0 64 64" width="64" height="64">
  <defs>
    <linearGradient id="g" x1="0" y1="0" x2="1" y2="1">
      <stop offset="0%" stop-color="#14b8a6"/>
      <stop offset="100%" stop-color="#0f766e"/>
    </linearGradient>
  </defs>
  <rect width="64" height="64" rx="14" fill="url(#g)"/>
  <path d="M32 16c-7 0-12 4-12 11 0 4 2 5 2 10s-1 11 2 12 4-4 5-7 2-3 3-3 2 0 3 3 2 8 5 7 2-7 2-12 2-6 2-10c0-7-5-11-12-11z"
        fill="white" stroke="white" stroke-width="1" stroke-linejoin="round"/>
  <circle cx="26" cy="28" r="2.5" fill="#0f766e"/>
  <circle cx="38" cy="28" r="2.5" fill="#0f766e"/>
  <path d="M27 36c1.5 2 3 3 5 3s3.5-1 5-3" fill="none" stroke="#0f766e" stroke-width="2" stroke-linecap="round"/>
</svg>
